<svg xmlns="http://www.w3.org/2000/svg" xmlns:xlink="http://www.w3.org/1999/xlink" width="1122" zoomAndPan="magnify" viewBox="0 0 841.92 595.499987" height="793" preserveAspectRatio="xMidYMid meet" version="1.0"><defs><clipPath id="0b4638c0d5"><path d="M 242 199.257812 L 361 199.257812 L 361 358 L 242 358 Z M 242 199.257812 " clip-rule="nonzero"/></clipPath><clipPath id="f08461ff6a"><path d="M 438 244 L 556 244 L 556 395.589844 L 438 395.589844 Z M 438 244 " clip-rule="nonzero"/></clipPath><clipPath id="9f836949f2"><path d="M 607 321 L 719 321 L 719 358 L 607 358 Z M 607 321 " clip-rule="nonzero"/></clipPath><clipPath id="934a11acb2"><path d="M 701.167969 357.101562 L 625.328125 357.101562 C 615.480469 357.101562 607.527344 349.144531 607.527344 339.300781 C 607.527344 329.457031 615.480469 321.5 625.328125 321.5 L 701.167969 321.5 C 711.011719 321.5 718.96875 329.457031 718.96875 339.300781 C 718.96875 349.144531 711.011719 357.101562 701.167969 357.101562 Z M 701.167969 357.101562 " clip-rule="nonzero"/></clipPath><clipPath id="0258421b70"><path d="M 744 199.257812 L 782.183594 199.257812 L 782.183594 238 L 744 238 Z M 744 199.257812 " clip-rule="nonzero"/></clipPath><clipPath id="6d664143f5"><path d="M 59.789062 199.257812 L 98 199.257812 L 98 238 L 59.789062 238 Z M 59.789062 199.257812 " clip-rule="nonzero"/></clipPath><clipPath id="c1840875a8"><path d="M 383 199.257812 L 422 199.257812 L 422 238 L 383 238 Z M 383 199.257812 " clip-rule="nonzero"/></clipPath></defs><path fill="#7541ee" d="M 135.917969 357.136719 C 129.53125 357.136719 124.71875 355.425781 121.433594 352.035156 C 118.152344 348.648438 116.546875 343.796875 116.546875 337.554688 L 116.546875 265.320312 C 116.546875 259.078125 118.1875 254.261719 121.433594 250.835938 C 124.71875 247.414062 129.390625 245.734375 135.453125 245.734375 C 141.519531 245.734375 146.015625 247.449219 149.261719 250.835938 C 152.542969 254.261719 154.148438 259.078125 154.148438 265.320312 L 154.148438 275.554688 L 151.757812 266.640625 C 155.253906 259.824219 160.210938 254.546875 166.667969 250.871094 C 173.125 247.199219 180.476562 245.308594 188.75 245.308594 C 197.027344 245.308594 204.339844 247.019531 209.871094 250.410156 C 215.363281 253.832031 219.503906 258.898438 222.285156 265.640625 C 225.03125 272.382812 226.421875 281.050781 226.421875 291.644531 L 226.421875 337.554688 C 226.421875 343.796875 224.746094 348.609375 221.429688 352.035156 C 218.074219 355.460938 213.296875 357.136719 207.050781 357.136719 C 200.808594 357.136719 196.027344 355.425781 192.675781 352.035156 C 189.320312 348.609375 187.679688 343.796875 187.679688 337.554688 L 187.679688 293.179688 C 187.679688 286.792969 186.539062 282.191406 184.292969 279.375 C 182.042969 276.554688 178.726562 275.128906 174.375 275.128906 C 168.558594 275.128906 163.921875 276.984375 160.460938 280.691406 C 156.964844 284.402344 155.253906 289.359375 155.253906 295.605469 L 155.253906 337.589844 C 155.253906 350.644531 148.796875 357.171875 135.882812 357.171875 Z M 135.917969 357.136719 " fill-opacity="1" fill-rule="nonzero"/><g clip-path="url(#0b4638c0d5)"><path fill="#7541ee" d="M 289.742188 357.457031 C 280.613281 357.457031 272.511719 355.175781 265.484375 350.609375 C 258.457031 346.042969 252.929688 339.550781 248.933594 331.132812 C 244.9375 322.714844 242.941406 312.796875 242.941406 301.3125 C 242.941406 289.824219 244.902344 279.550781 248.824219 271.277344 C 252.75 263 258.207031 256.578125 265.273438 252.011719 C 272.300781 247.449219 280.46875 245.164062 289.742188 245.164062 C 297.734375 245.164062 304.90625 247.089844 311.289062 250.945312 C 317.675781 254.796875 322.027344 259.683594 324.347656 265.640625 L 321.742188 265.640625 L 321.742188 218.839844 C 321.742188 212.597656 323.421875 207.78125 326.738281 204.355469 C 330.089844 200.933594 334.871094 199.257812 341.113281 199.257812 C 347.355469 199.257812 352.136719 200.96875 355.492188 204.355469 C 358.84375 207.78125 360.484375 212.597656 360.484375 218.839844 L 360.484375 337.445312 C 360.484375 343.6875 358.84375 348.503906 355.597656 351.929688 C 352.351562 355.351562 347.570312 357.027344 341.328125 357.027344 C 335.085938 357.027344 330.519531 355.316406 327.203125 351.929688 C 323.847656 348.503906 322.207031 343.6875 322.207031 337.445312 L 322.207031 324.605469 L 324.597656 335.484375 C 322.707031 342.011719 318.496094 347.289062 311.96875 351.359375 C 305.441406 355.425781 298.054688 357.457031 289.78125 357.457031 Z M 302.160156 328.527344 C 306.082031 328.527344 309.507812 327.636719 312.503906 325.816406 C 315.464844 323.996094 317.820312 321.074219 319.566406 317.007812 C 321.316406 312.941406 322.171875 307.730469 322.171875 301.347656 C 322.171875 291.644531 320.28125 284.617188 316.5 280.335938 C 312.71875 276.054688 307.9375 273.914062 302.121094 273.914062 C 298.199219 273.914062 294.738281 274.878906 291.671875 276.734375 C 288.636719 278.625 286.246094 281.550781 284.5 285.542969 C 282.75 289.539062 281.894531 294.785156 281.894531 301.3125 C 281.894531 310.871094 283.785156 317.828125 287.566406 322.105469 C 291.347656 326.386719 296.199219 328.527344 302.160156 328.527344 Z M 302.160156 328.527344 " fill-opacity="1" fill-rule="nonzero"/></g><g clip-path="url(#f08461ff6a)"><path fill="#7541ee" d="M 536.320312 395.589844 C 530.078125 395.589844 525.296875 393.878906 521.945312 390.488281 C 518.59375 387.0625 516.949219 382.25 516.949219 376.007812 L 516.949219 336.199219 L 519.554688 336.199219 C 517.234375 342.296875 512.882812 347.253906 506.5 351.109375 C 500.109375 354.960938 492.941406 356.886719 484.949219 356.886719 C 475.671875 356.886719 467.507812 354.601562 460.480469 350.039062 C 453.449219 345.472656 447.957031 338.980469 444.03125 330.5625 C 440.109375 322.144531 438.144531 312.226562 438.144531 300.738281 C 438.144531 289.253906 440.144531 278.980469 444.136719 270.707031 C 448.132812 262.429688 453.628906 256.007812 460.691406 251.441406 C 467.753906 246.878906 475.816406 244.59375 484.949219 244.59375 C 493.226562 244.59375 500.609375 246.628906 507.136719 250.695312 C 513.667969 254.761719 517.878906 260.039062 519.769531 266.566406 L 517.378906 277.234375 L 517.378906 264.605469 C 517.378906 258.363281 519.054688 253.546875 522.375 250.125 C 525.691406 246.699219 530.433594 245.023438 536.5 245.023438 C 542.5625 245.023438 547.488281 246.734375 550.765625 250.125 C 554.050781 253.546875 555.65625 258.363281 555.65625 264.605469 L 555.65625 376.007812 C 555.65625 382.25 553.980469 387.0625 550.660156 390.488281 C 547.304688 393.914062 542.527344 395.589844 536.285156 395.589844 Z M 497.363281 327.921875 C 501.289062 327.921875 504.714844 327.03125 507.710938 325.210938 C 510.671875 323.390625 513.023438 320.464844 514.773438 316.398438 C 516.523438 312.332031 517.378906 307.125 517.378906 300.738281 C 517.378906 291.039062 515.488281 284.011719 511.703125 279.730469 C 507.925781 275.449219 503.140625 273.308594 497.332031 273.308594 C 493.40625 273.308594 489.945312 274.273438 486.875 276.128906 C 483.84375 278.019531 481.457031 280.941406 479.707031 284.9375 C 477.957031 288.933594 477.101562 294.175781 477.101562 300.703125 C 477.101562 310.265625 478.992188 317.21875 482.777344 321.5 C 486.558594 325.78125 491.40625 327.921875 497.363281 327.921875 Z M 497.363281 327.921875 " fill-opacity="1" fill-rule="nonzero"/></g><g clip-path="url(#9f836949f2)"><g clip-path="url(#934a11acb2)"><path fill="#fb517a" d="M 607.527344 321.5 L 607.527344 357.101562 L 718.96875 357.101562 L 718.96875 321.5 Z M 607.527344 321.5 " fill-opacity="1" fill-rule="nonzero"/></g></g><path fill="#f4b512" d="M 763.277344 357.101562 C 757.246094 357.101562 751.363281 354.03125 748.007812 348.503906 L 694.890625 260.539062 L 640.488281 348.648438 C 635.316406 357.027344 624.363281 359.597656 615.980469 354.425781 C 607.597656 349.253906 605.027344 338.300781 610.199219 329.917969 L 679.90625 217.019531 C 683.152344 211.777344 688.898438 208.566406 695.066406 208.566406 L 695.140625 208.566406 C 701.347656 208.566406 707.089844 211.847656 710.304688 217.164062 L 778.507812 330.0625 C 783.609375 338.480469 780.902344 349.429688 772.480469 354.496094 C 769.59375 356.246094 766.417969 357.066406 763.277344 357.066406 Z M 763.277344 357.101562 " fill-opacity="1" fill-rule="nonzero"/><g clip-path="url(#0258421b70)"><path fill="#fb517a" d="M 763.242188 237.210938 C 773.703125 237.210938 782.183594 228.730469 782.183594 218.269531 C 782.183594 207.808594 773.703125 199.328125 763.242188 199.328125 C 752.777344 199.328125 744.296875 207.808594 744.296875 218.269531 C 744.296875 228.730469 752.777344 237.210938 763.242188 237.210938 Z M 763.242188 237.210938 " fill-opacity="1" fill-rule="nonzero"/></g><path fill="#f4b512" d="M 763.242188 357.101562 C 753.394531 357.101562 745.441406 349.144531 745.441406 339.300781 L 745.441406 256.4375 C 745.441406 246.589844 753.394531 238.636719 763.242188 238.636719 C 773.085938 238.636719 781.042969 246.589844 781.042969 256.4375 L 781.042969 339.300781 C 781.042969 349.144531 773.085938 357.101562 763.242188 357.101562 Z M 763.242188 357.101562 " fill-opacity="1" fill-rule="nonzero"/><g clip-path="url(#6d664143f5)"><path fill="#7541ee" d="M 78.734375 237.140625 C 89.195312 237.140625 97.675781 228.660156 97.675781 218.199219 C 97.675781 207.738281 89.195312 199.257812 78.734375 199.257812 C 68.273438 199.257812 59.789062 207.738281 59.789062 218.199219 C 59.789062 228.660156 68.273438 237.140625 78.734375 237.140625 Z M 78.734375 237.140625 " fill-opacity="1" fill-rule="nonzero"/></g><path fill="#7541ee" d="M 78.734375 357.027344 C 68.886719 357.027344 60.933594 349.074219 60.933594 339.230469 L 60.933594 256.367188 C 60.933594 246.519531 68.886719 238.566406 78.734375 238.566406 C 88.578125 238.566406 96.535156 246.519531 96.535156 256.367188 L 96.535156 339.230469 C 96.535156 349.074219 88.578125 357.027344 78.734375 357.027344 Z M 78.734375 357.027344 " fill-opacity="1" fill-rule="nonzero"/><g clip-path="url(#c1840875a8)"><path fill="#7541ee" d="M 402.6875 237.140625 C 413.148438 237.140625 421.628906 228.660156 421.628906 218.199219 C 421.628906 207.738281 413.148438 199.257812 402.6875 199.257812 C 392.226562 199.257812 383.746094 207.738281 383.746094 218.199219 C 383.746094 228.660156 392.226562 237.140625 402.6875 237.140625 Z M 402.6875 237.140625 " fill-opacity="1" fill-rule="nonzero"/></g><path fill="#7541ee" d="M 402.6875 357.027344 C 392.839844 357.027344 384.886719 349.074219 384.886719 339.230469 L 384.886719 256.367188 C 384.886719 246.519531 392.839844 238.566406 402.6875 238.566406 C 412.53125 238.566406 420.488281 246.519531 420.488281 256.367188 L 420.488281 339.230469 C 420.488281 349.074219 412.53125 357.027344 402.6875 357.027344 Z M 402.6875 357.027344 " fill-opacity="1" fill-rule="nonzero"/><path fill="#7541ee" d="M 582.554688 357.242188 C 578.132812 357.242188 574.632812 355.957031 572.066406 353.355469 C 569.460938 350.75 568.175781 347.328125 568.175781 343.011719 C 568.175781 338.695312 569.460938 335.589844 572.066406 333.023438 C 574.671875 330.453125 578.164062 329.132812 582.554688 329.132812 C 586.941406 329.132812 590.402344 330.417969 592.898438 333.023438 C 595.398438 335.625 596.609375 338.945312 596.609375 343.011719 C 596.609375 347.292969 595.359375 350.75 592.898438 353.355469 C 590.402344 355.957031 586.980469 357.242188 582.554688 357.242188 Z M 582.554688 357.242188 " fill-opacity="1" fill-rule="nonzero"/></svg>